<svg width="40" height="40" viewBox="0 0 40 40" fill="none" xmlns="http://www.w3.org/2000/svg">
<path d="M20.16 38.9598C10.02 38.9598 1.77199 30.7118 1.77199 20.5718C1.77199 10.4318 10.02 2.18384 20.16 2.18384C22.16 2.18384 24.128 2.50384 26.004 3.13184L25.724 3.97184C23.936 3.37184 22.064 3.06784 20.16 3.06784C10.508 3.06784 2.65599 10.9198 2.65599 20.5718C2.65599 30.2238 10.508 38.0758 20.16 38.0758C29.812 38.0758 37.664 30.2238 37.664 20.5718C37.664 18.2758 37.224 16.0398 36.36 13.9358L37.176 13.5998C38.084 15.8118 38.544 18.1598 38.544 20.5718C38.552 30.7118 30.3 38.9598 20.16 38.9598Z" fill="black"/>
<path d="M15.644 13.8154V27.3274H14.256V15.0514H11.072V13.8154H15.644V13.8154Z" fill="black"/>
<path d="M28.5682 21.516C29.0242 22.084 29.2522 22.764 29.2522 23.56C29.2522 24.344 29.0402 25.032 28.6162 25.616C28.1922 26.2 27.5842 26.652 26.7922 26.968C26.0002 27.284 25.0722 27.44 24.0042 27.44C22.3842 27.44 21.1082 27.092 20.1841 26.396C19.2561 25.7 18.7961 24.756 18.7961 23.56C18.7961 22.748 19.0161 22.064 19.4601 21.504C19.9041 20.944 20.5521 20.524 21.4002 20.24C20.7042 19.968 20.1761 19.58 19.8161 19.072C19.4561 18.564 19.2761 17.964 19.2761 17.268C19.2761 16.176 19.7041 15.304 20.5601 14.664C21.4162 14.02 22.5642 13.7 24.0042 13.7C24.9562 13.7 25.7882 13.844 26.5042 14.136C27.2202 14.424 27.7762 14.84 28.1722 15.38C28.5722 15.92 28.7722 16.552 28.7722 17.272C28.7722 17.968 28.5842 18.568 28.2122 19.076C27.8402 19.584 27.3042 19.972 26.6122 20.244C27.4562 20.528 28.1082 20.952 28.5682 21.516ZM26.8122 25.532C27.4882 25.044 27.8242 24.38 27.8242 23.544C27.8242 22.708 27.4882 22.048 26.8122 21.564C26.1362 21.084 25.2002 20.84 24.0042 20.84C22.8202 20.84 21.8922 21.08 21.2162 21.564C20.5402 22.048 20.2041 22.708 20.2041 23.544C20.2041 24.392 20.5402 25.06 21.2082 25.54C21.8762 26.024 22.8082 26.264 24.0082 26.264C25.2002 26.264 26.1362 26.02 26.8122 25.532ZM21.5522 19.084C22.1442 19.52 22.9602 19.74 24.0042 19.74C25.0482 19.74 25.8682 19.52 26.4642 19.084C27.0642 18.648 27.3602 18.06 27.3602 17.328C27.3602 16.568 27.0562 15.972 26.4442 15.532C25.8322 15.096 25.0202 14.876 24.0042 14.876C22.9762 14.876 22.1602 15.096 21.5642 15.532C20.9642 15.968 20.6682 16.56 20.6682 17.308C20.6642 18.056 20.9602 18.648 21.5522 19.084Z" fill="black"/>
<path d="M36.4081 6.80363H32.9801V10.1436H32.1681V6.80363H28.7401V6.02763H32.1681V2.67163H32.9801V6.02763H36.4081V6.80363Z" fill="black"/>
</svg>
