<svg width="14" height="14" viewBox="0 0 14 14" fill="none" xmlns="http://www.w3.org/2000/svg">
<g clip-path="url(#clip0)">
<path d="M0.786956 5.90215L0.765101 5.90693H10.1333L7.18826 2.95543C7.04405 2.81133 6.96494 2.61613 6.96494 2.41125C6.96494 2.20637 7.04405 2.01253 7.18826 1.86809L7.6465 1.40962C7.7906 1.26552 7.98261 1.18585 8.18738 1.18585C8.39226 1.18585 8.58439 1.26496 8.72848 1.40905L13.7768 6.45691C13.9215 6.60158 14.0006 6.79428 14 6.99927C14.0006 7.2054 13.9215 7.39821 13.7768 7.54265L8.72848 12.591C8.58439 12.735 8.39237 12.8142 8.18738 12.8142C7.98261 12.8142 7.7906 12.7348 7.6465 12.591L7.18826 12.1325C7.04405 11.9886 6.96494 11.7965 6.96494 11.5916C6.96494 11.3869 7.04405 11.2049 7.18826 11.0609L10.1665 8.09287H0.776484C0.354548 8.09287 -3.8147e-06 7.72921 -3.8147e-06 7.3075V6.65906C-3.8147e-06 6.23735 0.365021 5.90215 0.786956 5.90215Z" fill="#002197"/>
</g>
<defs>
<clipPath id="clip0">
<rect width="14" height="14" transform="matrix(-1 0 0 1 14 0)" fill="white"/>
</clipPath>
</defs>
</svg>
