<svg width="20" height="20" viewBox="0 0 20 20" fill="none" xmlns="http://www.w3.org/2000/svg">
<g clip-path="url(#clip0)">
<path d="M16.8524 10.5919V1.87177H13.2354V0.210205H12.3862V1.87177H8.85487V0.210205H8.00163V1.87177H4.4703V0.210205H3.61706V1.87177H0V16.3849H10.9083C11.4717 18.3445 13.2598 19.7897 15.3623 19.7897C17.9139 19.7897 20 17.6627 20 15.0663C20.0041 12.9965 18.6814 11.2288 16.8524 10.5919V10.5919ZM0.853235 2.72092H3.61706V4.54986H4.46622V2.72092H8.00163V4.54986H8.85079V2.72092H12.3821V4.54986H13.2313V2.72092H16.0033V6.63601H0.853235V2.72092V2.72092ZM10.7532 15.5358H0.853235V15.5317V7.48924H16.0033V10.3878C15.7951 10.3592 15.5828 10.3429 15.3664 10.3429C12.8149 10.3429 10.7287 12.4698 10.7287 15.0663C10.7287 15.2255 10.7369 15.3806 10.7532 15.5358V15.5358ZM15.3664 18.9365C13.2803 18.9365 11.5779 17.1933 11.5779 15.0622C11.5779 12.9352 13.2803 11.188 15.3664 11.188C17.4525 11.188 19.1549 12.9312 19.1549 15.0622C19.1549 17.1933 17.4485 18.9365 15.3664 18.9365V18.9365Z" fill="#9E9E9E"/>
<path d="M14.9379 14.4701H13.5744V15.3193H15.7912V11.9717H14.9379V14.4701Z" fill="#9E9E9E"/>
</g>
<defs>
<clipPath id="clip0">
<rect width="20" height="20" fill="white"/>
</clipPath>
</defs>
</svg>
