<svg width="16" height="16" viewBox="0 0 16 16" fill="none" xmlns="http://www.w3.org/2000/svg">
<path d="M2.66669 6.79066H6.13336C6.28082 6.79066 6.40002 6.67119 6.40002 6.52399C6.40002 6.37679 6.28082 6.25732 6.13336 6.25732H2.66669C2.51922 6.25732 2.40002 6.37679 2.40002 6.52399C2.40002 6.67119 2.51922 6.79066 2.66669 6.79066Z" fill="#9E9E9E"/>
<path d="M9.60002 7.85718H2.66669C2.51922 7.85718 2.40002 7.97664 2.40002 8.12384C2.40002 8.27104 2.51922 8.39051 2.66669 8.39051H9.60002C9.74749 8.39051 9.86669 8.27104 9.86669 8.12384C9.86669 7.97664 9.74749 7.85718 9.60002 7.85718Z" fill="#9E9E9E"/>
<path d="M9.60002 9.45728H2.66669C2.51922 9.45728 2.40002 9.57674 2.40002 9.72394C2.40002 9.87114 2.51922 9.99061 2.66669 9.99061H9.60002C9.74749 9.99061 9.86669 9.87114 9.86669 9.72394C9.86669 9.57674 9.74749 9.45728 9.60002 9.45728Z" fill="#9E9E9E"/>
<path d="M14.4192 0.675893L5.31467 0.657227C4.44267 0.657227 3.73333 1.36656 3.73333 2.23856V3.60496L1.58133 3.60949C0.709333 3.60949 0 4.31883 0 5.19083V10.8284C0 11.7004 0.709333 12.4095 1.58133 12.4095H3.2V15.0762C3.2 15.1863 3.26773 15.2852 3.37067 15.325C3.40187 15.337 3.4344 15.3428 3.46667 15.3428C3.54027 15.3428 3.61253 15.3122 3.664 15.2556L6.25173 12.409L10.6853 12.3908C11.5573 12.3908 12.2667 11.6815 12.2667 10.8098V10.7796L13.6693 12.3226C13.7208 12.3791 13.7931 12.4098 13.8667 12.4098C13.8989 12.4098 13.9315 12.4039 13.9627 12.3919C14.0656 12.3522 14.1333 12.2532 14.1333 12.1431V9.47643H14.4187C15.2907 9.47643 16 8.76709 16 7.89536V2.25723C16 1.38549 15.2909 0.67616 14.4192 0.675893ZM11.7333 10.8095C11.7333 11.3874 11.2632 11.8572 10.6843 11.8572L6.13227 11.8759C6.0576 11.8762 5.98613 11.9079 5.936 11.9631L3.73333 14.3863V12.1426C3.73333 11.9954 3.61413 11.8759 3.46667 11.8759H1.58133C1.00347 11.8759 0.533333 11.4058 0.533333 10.8282V5.19056C0.533333 4.61269 1.00347 4.14256 1.58187 4.14256L4 4.13749C4.00027 4.13749 4.00027 4.13749 4.00053 4.13749L10.6853 4.12363C11.2632 4.12363 11.7333 4.59376 11.7333 5.17163V10.0892V10.8095ZM15.4667 7.89483C15.4667 8.47269 14.9965 8.94256 14.4187 8.94256H13.8667C13.7192 8.94256 13.6 9.06203 13.6 9.20923V11.453L12.2667 9.98629V5.17189C12.2667 4.29989 11.5573 3.59056 10.6848 3.59056L4.26667 3.60363V2.23829C4.26667 1.66043 4.7368 1.19029 5.31413 1.19029L14.4184 1.20896C14.4187 1.20896 14.4187 1.20896 14.4189 1.20896C14.9968 1.20896 15.4669 1.67909 15.4669 2.25696V7.89483H15.4667Z" fill="#9E9E9E"/>
</svg>
