<svg width="40" height="40" viewBox="0 0 40 40" fill="none" xmlns="http://www.w3.org/2000/svg">
<g clip-path="url(#clip0)">
<path d="M39.3333 37.6667H0.666667C0.298667 37.6667 0 37.3687 0 37V25.6667C0 25.298 0.298667 25 0.666667 25H14C14.368 25 14.6667 25.298 14.6667 25.6667C14.6667 26.0353 14.368 26.3333 14 26.3333H1.33333V36.3333H38.6667V26.3333H26C25.632 26.3333 25.3333 26.0353 25.3333 25.6667C25.3333 25.298 25.632 25 26 25H39.3333C39.7013 25 40 25.298 40 25.6667V37C40 37.3687 39.7013 37.6667 39.3333 37.6667Z" fill="black"/>
<path d="M20.0001 28.3333C19.8295 28.3333 19.6588 28.2679 19.5288 28.1379L10.1955 18.8046C10.0048 18.6139 9.94746 18.3273 10.0508 18.0779C10.1541 17.8286 10.3975 17.6666 10.6668 17.6666H16.0001V2.99992C16.0001 2.63125 16.2988 2.33325 16.6668 2.33325H23.3335C23.7015 2.33325 24.0001 2.63125 24.0001 2.99992V17.6666H29.3335C29.6028 17.6666 29.8461 17.8286 29.9495 18.0779C30.0528 18.3273 29.9955 18.6139 29.8048 18.8046L20.4715 28.1379C20.3415 28.2679 20.1708 28.3333 20.0001 28.3333ZM12.2761 18.9999L20.0001 26.7239L27.7241 18.9999H23.3335C22.9655 18.9999 22.6668 18.7019 22.6668 18.3333V3.66659H17.3335V18.3333C17.3335 18.7019 17.0348 18.9999 16.6668 18.9999H12.2761Z" fill="black"/>
</g>
<defs>
<clipPath id="clip0">
<rect width="40" height="40" fill="white"/>
</clipPath>
</defs>
</svg>
