<svg width="20" height="20" viewBox="0 0 20 20" fill="none" xmlns="http://www.w3.org/2000/svg">
<g clip-path="url(#clip0)">
<path d="M17.2507 7.28414C13.2341 3.26759 6.69932 3.26759 2.68277 7.28414L0 9.96658L2.74932 12.7159C4.75743 14.724 7.39527 15.7284 10.0334 15.7284C12.6716 15.7284 15.3091 14.7243 17.3176 12.7159L20.0003 10.0331L17.2507 7.28414ZM16.8395 12.2382C13.0865 15.9909 6.98007 15.9909 3.22703 12.2382L0.955405 9.96658L3.16047 7.76151C6.91351 4.00881 13.0199 4.00881 16.773 7.76151L19.0446 10.0331L16.8395 12.2382Z" fill="#9E9E9E"/>
<path d="M9.65268 7.28711C8.34862 7.28711 7.28781 8.34792 7.28781 9.65197C7.28781 9.83846 7.43916 9.98981 7.62565 9.98981C7.81214 9.98981 7.96349 9.83846 7.96349 9.65197C7.96349 8.72056 8.72126 7.96279 9.65268 7.96279C9.83916 7.96279 9.99051 7.81143 9.99051 7.62495C9.99051 7.43846 9.8395 7.28711 9.65268 7.28711Z" fill="#9E9E9E"/>
<path d="M9.99053 5.5979C7.5689 5.5979 5.59863 7.56817 5.59863 9.98979C5.59863 12.4114 7.5689 14.3817 9.99053 14.3817C12.4121 14.3817 14.3824 12.4114 14.3824 9.98979C14.3824 7.56817 12.4125 5.5979 9.99053 5.5979ZM9.99053 13.706C7.94154 13.706 6.27431 12.0388 6.27431 9.98979C6.27431 7.94081 7.94154 6.27358 9.99053 6.27358C12.0395 6.27358 13.7067 7.94081 13.7067 9.98979C13.7067 12.0388 12.0399 13.706 9.99053 13.706Z" fill="#9E9E9E"/>
</g>
<defs>
<clipPath id="clip0">
<rect width="20" height="20" fill="white"/>
</clipPath>
</defs>
</svg>
