<svg width="16" height="17" viewBox="0 0 16 17" fill="none" xmlns="http://www.w3.org/2000/svg">
<g clip-path="url(#clip0)">
<path d="M15.8603 15.684L11.972 11.7958C13.0151 10.5967 13.6465 9.03215 13.6465 7.32217C13.6465 3.55809 10.5849 0.5 6.82437 0.5C3.06029 0.5 0.00219727 3.56164 0.00219727 7.32217C0.00219727 11.0827 3.06384 14.1443 6.82437 14.1443C8.53435 14.1443 10.0989 13.5129 11.298 12.4698L15.1862 16.3581C15.2785 16.4503 15.4026 16.5 15.5233 16.5C15.6439 16.5 15.7681 16.4539 15.8603 16.3581C16.0448 16.1736 16.0448 15.8685 15.8603 15.684ZM0.956521 7.32217C0.956521 4.0867 3.58889 1.45787 6.82082 1.45787C10.0563 1.45787 12.6851 4.09024 12.6851 7.32217C12.6851 10.5541 10.0563 13.19 6.82082 13.19C3.58889 13.19 0.956521 10.5576 0.956521 7.32217Z" fill="#333333"/>
</g>
<defs>
<clipPath id="clip0">
<rect y="0.5" width="16" height="16" fill="white"/>
</clipPath>
</defs>
</svg>
