<svg width="231" height="231" viewBox="0 0 231 231" fill="none" xmlns="http://www.w3.org/2000/svg">
<path fill-rule="evenodd" clip-rule="evenodd" d="M194.271 37.3283C208.117 38.1079 214.917 40.158 221.182 51.3037C227.708 62.4351 231 81.6081 231 115.377V115.421V115.493C231 149.103 227.708 168.421 221.197 179.437C214.931 190.582 208.131 192.604 194.285 193.542C180.44 194.336 145.66 194.812 115.529 194.812C85.3401 194.812 50.5457 194.336 36.7146 193.528C22.8979 192.589 16.0978 190.568 9.77419 179.422C3.32062 168.406 0 149.089 0 115.478V115.45V115.406V115.363C0 81.6081 3.32062 62.4351 9.77419 51.3037C16.0978 40.1436 22.9123 38.1079 36.729 37.3138C50.5457 36.3898 85.3401 36 115.529 36C145.66 36 180.44 36.3898 194.271 37.3283ZM158.812 115.406L86.625 72.0938V158.719L158.812 115.406Z" fill="#393939"/>
</svg>
