<svg width="173" height="54" viewBox="0 0 173 54" fill="none" xmlns="http://www.w3.org/2000/svg">
<path d="M146 0H27C12.0883 0 0 12.0883 0 27C0 41.9117 12.0883 54 27 54H146C160.912 54 173 41.9117 173 27C173 12.0883 160.912 0 146 0Z" fill="#212121"/>
<path d="M61.11 20.8801L61.567 19.5731H63.377C63.5067 19.943 63.6363 20.3131 63.766 20.6831L63.835 20.8801H64.431L62.753 16.3141H62.192L60.513 20.8801H61.109H61.11ZM63.21 19.0901H61.734L61.807 18.8831L61.985 18.3741L62.196 17.7671C62.279 17.5282 62.3626 17.2895 62.447 17.0511H62.497L63.21 19.0891V19.0901ZM66.327 20.8801L66.454 20.5351C66.8323 19.5136 67.2093 18.4916 67.585 17.4691H67.005L66.075 20.2791H66.024L65.094 17.4691H64.513L65.771 20.8801H66.327ZM69.222 20.9401C69.449 20.9401 69.653 20.8921 69.834 20.7951C70.0145 20.6981 70.165 20.5536 70.269 20.3771H70.319V20.8801H70.837V18.5451C70.837 18.1911 70.725 17.9131 70.501 17.7111C70.277 17.5101 69.958 17.4091 69.544 17.4091C69.182 17.4091 68.878 17.4921 68.632 17.6571C68.5169 17.7287 68.4191 17.8251 68.346 17.9393C68.2728 18.0535 68.226 18.1825 68.209 18.3171H68.759C68.778 18.2499 68.8108 18.1874 68.8552 18.1335C68.8996 18.0796 68.9547 18.0356 69.017 18.0041C69.152 17.9301 69.321 17.8941 69.525 17.8941C69.779 17.8941 69.971 17.9491 70.101 18.0611C70.23 18.1731 70.295 18.3341 70.295 18.5451V18.8551L69.313 18.9151C68.487 18.9641 68.073 19.3001 68.073 19.9251C68.073 20.2371 68.183 20.4841 68.4 20.6661C68.618 20.8491 68.892 20.9401 69.222 20.9401ZM69.322 20.4621C69.1469 20.4687 68.9744 20.4177 68.831 20.3171C68.7675 20.271 68.7163 20.2098 68.6821 20.1392C68.6479 20.0685 68.6317 19.9905 68.635 19.9121C68.635 19.5741 68.883 19.3891 69.38 19.3551L70.295 19.2951V19.6081C70.2969 19.7239 70.273 19.8387 70.2251 19.9442C70.1772 20.0497 70.1065 20.1433 70.018 20.2181C69.8254 20.3841 69.5771 20.4712 69.323 20.4621H69.322ZM72.218 16.8111C72.268 16.8119 72.3176 16.8024 72.3637 16.7831C72.4098 16.7638 72.4515 16.7352 72.486 16.6991C72.5215 16.6642 72.5496 16.6224 72.5685 16.5763C72.5874 16.5303 72.5967 16.4809 72.596 16.4311C72.5969 16.3811 72.5877 16.3315 72.5688 16.2852C72.5498 16.239 72.5217 16.1971 72.486 16.1621C72.4512 16.1264 72.4095 16.0983 72.3634 16.0793C72.3173 16.0604 72.2678 16.0511 72.218 16.0521C72.1682 16.0511 72.1187 16.0604 72.0726 16.0793C72.0265 16.0983 71.9848 16.1264 71.95 16.1621C71.9142 16.1972 71.886 16.2392 71.867 16.2857C71.8481 16.3321 71.8389 16.3819 71.84 16.4321C71.8395 16.4817 71.849 16.5309 71.8679 16.5767C71.8868 16.6226 71.9147 16.6642 71.95 16.6991C71.9845 16.7352 72.0261 16.7638 72.0723 16.7831C72.1184 16.8024 72.168 16.8119 72.218 16.8111ZM72.486 20.8801V17.4701H71.944V20.8801H72.486ZM74.186 20.8801V16.1151H73.644V20.8801H74.186ZM76.277 20.9401C76.504 20.9401 76.708 20.8921 76.889 20.7951C77.0695 20.6981 77.22 20.5536 77.324 20.3771H77.374V20.8801H77.892V18.5451C77.892 18.1911 77.78 17.9131 77.556 17.7111C77.332 17.5101 77.013 17.4091 76.599 17.4091C76.237 17.4091 75.933 17.4921 75.687 17.6571C75.5719 17.7287 75.4741 17.8251 75.401 17.9393C75.3278 18.0535 75.281 18.1825 75.264 18.3171H75.814C75.833 18.2499 75.8658 18.1874 75.9102 18.1335C75.9546 18.0796 76.0097 18.0356 76.072 18.0041C76.207 17.9301 76.376 17.8941 76.58 17.8941C76.834 17.8941 77.026 17.9491 77.156 18.0611C77.285 18.1731 77.35 18.3341 77.35 18.5451V18.8551L76.369 18.9151C75.542 18.9641 75.129 19.3001 75.129 19.9251C75.129 20.2371 75.238 20.4841 75.455 20.6661C75.673 20.8491 75.947 20.9401 76.277 20.9401ZM76.378 20.4621C76.2025 20.4689 76.0297 20.418 75.886 20.3171C75.8225 20.271 75.7713 20.2098 75.7371 20.1392C75.7029 20.0685 75.6867 19.9905 75.69 19.9121C75.69 19.5741 75.938 19.3891 76.435 19.3551L77.35 19.2951V19.6081C77.352 19.7238 77.3283 19.8386 77.2806 19.9441C77.2329 20.0496 77.1623 20.1432 77.074 20.2181C76.8811 20.3843 76.6325 20.4715 76.378 20.4621ZM80.678 20.9401C81.108 20.9401 81.454 20.7801 81.713 20.4581C81.973 20.1361 82.103 19.7081 82.103 19.1751C82.103 18.6391 81.973 18.2111 81.715 17.8901C81.456 17.5701 81.11 17.4091 80.677 17.4091C80.444 17.4091 80.231 17.4631 80.038 17.5701C79.8545 17.6688 79.7055 17.8213 79.611 18.0071H79.561V16.1151H79.018V20.8801H79.535V20.3361H79.585C79.693 20.5261 79.843 20.6741 80.035 20.7801C80.228 20.8871 80.442 20.9401 80.677 20.9401H80.678ZM80.551 20.4501C80.4104 20.4555 80.2706 20.4273 80.1431 20.3678C80.0156 20.3083 79.9041 20.2193 79.818 20.1081C79.638 19.8801 79.548 19.5691 79.548 19.1751C79.548 18.7801 79.638 18.4691 79.818 18.2411C79.9041 18.1298 80.0156 18.0408 80.1431 17.9813C80.2706 17.9218 80.4104 17.8936 80.551 17.8991C80.862 17.8991 81.105 18.0121 81.28 18.2381C81.454 18.4641 81.542 18.7761 81.542 19.1751C81.542 19.5731 81.454 19.8851 81.28 20.1111C81.105 20.3371 80.862 20.4501 80.551 20.4501ZM83.62 20.8801V16.1151H83.077V20.8801H83.62ZM86.127 20.9401C86.499 20.9401 86.812 20.8561 87.064 20.6871C87.316 20.5181 87.482 20.2881 87.559 19.9971H87.017C86.9482 20.1445 86.833 20.2653 86.689 20.3411C86.5183 20.4253 86.3293 20.4659 86.139 20.4591C86.0084 20.464 85.8783 20.4399 85.7582 20.3886C85.638 20.3372 85.5307 20.2599 85.444 20.1621C85.269 19.9631 85.174 19.6961 85.159 19.3581V19.3331H87.604V19.1231C87.604 18.5941 87.472 18.1761 87.209 17.8691C86.946 17.5621 86.586 17.4091 86.127 17.4091C85.66 17.4091 85.288 17.5691 85.01 17.8921C84.733 18.2131 84.594 18.6421 84.594 19.1781C84.594 19.7181 84.732 20.1461 85.007 20.4641C85.283 20.7811 85.657 20.9401 86.127 20.9401ZM87.033 18.8931H85.159C85.179 18.5911 85.278 18.3491 85.452 18.1651C85.5378 18.0746 85.6417 18.0033 85.757 17.9559C85.8724 17.9085 85.9964 17.8861 86.121 17.8901C86.2433 17.8856 86.3651 17.9078 86.4779 17.9553C86.5907 18.0028 86.6918 18.0744 86.774 18.1651C86.94 18.3491 87.026 18.5911 87.033 18.8931ZM91.858 20.9401C92.342 20.9401 92.724 20.7821 93.005 20.4671C93.285 20.1521 93.425 19.7211 93.425 19.1751C93.425 18.6261 93.285 18.1951 93.005 17.8801C92.724 17.5661 92.342 17.4091 91.858 17.4091C91.374 17.4091 90.992 17.5661 90.711 17.8801C90.431 18.1951 90.291 18.6261 90.291 19.1751C90.291 19.7211 90.431 20.1521 90.711 20.4671C90.992 20.7821 91.374 20.9401 91.858 20.9401ZM91.858 20.4501C91.536 20.4501 91.288 20.3381 91.113 20.1141C90.939 19.8911 90.852 19.5771 90.852 19.1741C90.852 18.7701 90.939 18.4561 91.113 18.2341C91.288 18.0111 91.536 17.8991 91.858 17.8991C92.18 17.8991 92.428 18.0111 92.602 18.2331C92.777 18.4561 92.864 18.7701 92.864 19.1751C92.864 19.5771 92.777 19.8911 92.602 20.1151C92.428 20.3381 92.18 20.4501 91.858 20.4501ZM94.911 20.8801V18.8611C94.911 18.5611 94.992 18.3271 95.154 18.1561C95.316 17.9851 95.532 17.8991 95.804 17.8991C96.075 17.8991 96.276 17.9731 96.408 18.1211C96.539 18.2691 96.605 18.4961 96.605 18.8041V20.8801H97.148V18.6711C97.148 18.2661 97.045 17.9551 96.84 17.7371C96.635 17.5181 96.341 17.4091 95.958 17.4091C95.698 17.4091 95.484 17.4621 95.316 17.5671C95.1486 17.6729 95.0163 17.826 94.936 18.0071H94.886V17.4691H94.368V20.8801H94.911ZM101.351 20.9051C101.458 20.9054 101.566 20.895 101.671 20.8741V20.4141C101.587 20.4235 101.503 20.4278 101.419 20.4271C101.241 20.4271 101.113 20.3821 101.033 20.2911C100.953 20.2011 100.913 20.0551 100.913 19.8551V17.9251H101.67V17.4691H100.913V16.5861H100.37V17.4691H99.822V17.9251H100.37V19.9951C100.37 20.3191 100.447 20.5521 100.6 20.6931C100.752 20.8351 101.002 20.9051 101.352 20.9051H101.351ZM103.155 20.8801V18.8611C103.155 18.5721 103.236 18.3401 103.398 18.1641C103.56 17.9881 103.794 17.8991 104.098 17.8991C104.355 17.8991 104.55 17.9751 104.684 18.1261C104.817 18.2761 104.884 18.5031 104.884 18.8041V20.8801H105.427V18.6711C105.427 18.2711 105.321 17.9611 105.11 17.7401C104.898 17.5201 104.613 17.4091 104.253 17.4091C103.993 17.4091 103.774 17.4621 103.599 17.5671C103.426 17.6697 103.289 17.8234 103.206 18.0071H103.156V16.1151H102.613V20.8801H103.155ZM107.871 20.9401C108.243 20.9401 108.556 20.8561 108.808 20.6871C109.06 20.5181 109.225 20.2881 109.303 19.9971H108.761C108.692 20.1446 108.576 20.2655 108.432 20.3411C108.262 20.425 108.074 20.4655 107.884 20.4591C107.753 20.4641 107.623 20.4401 107.503 20.3887C107.382 20.3373 107.275 20.2599 107.188 20.1621C107.012 19.9631 106.918 19.6961 106.903 19.3581V19.3331H109.347V19.1231C109.347 18.5941 109.216 18.1761 108.953 17.8691C108.69 17.5621 108.329 17.4091 107.871 17.4091C107.404 17.4091 107.031 17.5691 106.754 17.8921C106.477 18.2131 106.338 18.6421 106.338 19.1781C106.338 19.7181 106.476 20.1461 106.751 20.4641C107.027 20.7811 107.4 20.9401 107.871 20.9401ZM108.776 18.8931H106.903C106.923 18.5911 107.021 18.3491 107.196 18.1651C107.282 18.0746 107.386 18.0033 107.501 17.9559C107.616 17.9085 107.74 17.8861 107.865 17.8901C107.987 17.8856 108.109 17.9078 108.222 17.9553C108.335 18.0028 108.436 18.0744 108.518 18.1651C108.684 18.3491 108.77 18.5911 108.776 18.8931ZM61.772 36.7201L62.775 33.8541H66.746C67.0804 34.8095 67.4146 35.7646 67.749 36.7201H69.057L65.377 26.7071H64.145L60.465 36.7201H61.772ZM66.38 32.7931H63.142L63.305 32.3311C63.5977 31.4978 63.8894 30.6641 64.18 29.8301L64.578 28.6881L64.74 28.2271H64.782L66.38 32.7931ZM71.892 39.1281V35.5481H71.92C72.136 35.9411 72.443 36.2551 72.84 36.4911C73.236 36.7271 73.693 36.8451 74.21 36.8451C75.118 36.8451 75.854 36.5051 76.416 35.8251C76.979 35.1451 77.26 34.2411 77.26 33.1121C77.26 31.9791 76.977 31.0731 76.41 30.3951C75.842 29.7181 75.1 29.3791 74.182 29.3791C73.6944 29.3697 73.2139 29.4972 72.795 29.7471C72.4001 29.9828 72.0761 30.3207 71.857 30.7251H71.83V29.5041H70.688V39.1281H71.892ZM73.947 35.7831C73.333 35.7831 72.837 35.5391 72.456 35.0511C72.076 34.5631 71.886 33.9171 71.886 33.1111C71.886 32.3111 72.076 31.6661 72.456 31.1761C72.836 30.6861 73.333 30.4401 73.946 30.4401C74.588 30.4401 75.095 30.6821 75.469 31.1661C75.842 31.6491 76.029 32.2981 76.029 33.1121C76.029 33.9311 75.842 34.5811 75.469 35.0621C75.095 35.5421 74.588 35.7831 73.947 35.7831ZM80.351 39.1281V35.5481H80.379C80.596 35.9411 80.903 36.2551 81.299 36.4911C81.696 36.7271 82.152 36.8451 82.669 36.8451C83.577 36.8451 84.313 36.5051 84.876 35.8251C85.438 35.1451 85.72 34.2411 85.72 33.1121C85.72 31.9791 85.436 31.0731 84.869 30.3951C84.302 29.7181 83.559 29.3791 82.641 29.3791C82.121 29.3791 81.658 29.5011 81.254 29.7471C80.8595 29.983 80.5358 30.3208 80.317 30.7251H80.289V29.5041H79.148V39.1281H80.351ZM82.406 35.7831C81.793 35.7831 81.296 35.5391 80.916 35.0511C80.535 34.5631 80.345 33.9171 80.345 33.1111C80.345 32.3111 80.535 31.6661 80.915 31.1761C81.295 30.6861 81.793 30.4401 82.406 30.4401C83.047 30.4401 83.554 30.6821 83.928 31.1661C84.302 31.6491 84.488 32.2981 84.488 33.1121C84.488 33.9311 84.302 34.5811 83.928 35.0621C83.554 35.5421 83.048 35.7831 82.406 35.7831ZM88.873 36.7201V26.7071H87.67V36.7201H88.874H88.873ZM94.136 36.8451C94.92 36.8451 95.59 36.6371 96.146 36.2201C96.702 35.8041 97.03 35.2811 97.132 34.6521H95.949C95.8451 34.993 95.6232 35.2859 95.323 35.4781C95.007 35.6911 94.621 35.7981 94.164 35.7981C93.518 35.7981 93.007 35.5881 92.628 35.1691C92.25 34.7511 92.061 34.1971 92.061 33.5071V33.4381H97.221V32.9801C97.221 31.8881 96.941 31.0151 96.381 30.3601C95.821 29.7061 95.054 29.3791 94.081 29.3791C93.09 29.3791 92.299 29.7261 91.708 30.4191C91.118 31.1141 90.823 32.0201 90.823 33.1391C90.823 34.2731 91.118 35.1741 91.708 35.8421C92.298 36.5111 93.108 36.8451 94.136 36.8451ZM95.976 32.4951H92.068C92.105 31.8931 92.305 31.3981 92.67 31.0091C93.034 30.6211 93.498 30.4271 94.06 30.4271C94.628 30.4271 95.085 30.6201 95.434 31.0061C95.782 31.3921 95.963 31.8881 95.977 32.4941L95.976 32.4951ZM106.144 36.8871C107.26 36.8871 108.154 36.6161 108.824 36.0751C109.495 35.5331 109.831 34.8001 109.831 33.8751C109.831 33.1671 109.607 32.5961 109.16 32.1611C108.712 31.7261 107.968 31.3961 106.925 31.1691L105.818 30.9261C105.136 30.7781 104.649 30.5681 104.358 30.2951C104.218 30.169 104.107 30.0146 104.032 29.8421C103.957 29.6697 103.92 29.4831 103.923 29.2951C103.923 28.7871 104.135 28.3881 104.559 28.0991C104.984 27.8091 105.507 27.6651 106.129 27.6651C106.78 27.6651 107.309 27.8221 107.714 28.1371C108.12 28.4511 108.35 28.8841 108.406 29.4341H109.651C109.623 28.5841 109.284 27.8881 108.634 27.3491C107.984 26.8101 107.16 26.5411 106.164 26.5411C105.131 26.5411 104.286 26.8021 103.629 27.3251C102.972 27.8481 102.643 28.5231 102.643 29.3511C102.643 30.0631 102.87 30.6491 103.324 31.1071C103.779 31.5651 104.506 31.9021 105.507 32.1201L106.614 32.3621C107.306 32.5151 107.802 32.7321 108.101 33.0121C108.401 33.2921 108.551 33.6421 108.551 34.0621C108.551 34.5521 108.331 34.9591 107.891 35.2801C107.45 35.6021 106.891 35.7621 106.213 35.7621C105.498 35.7621 104.909 35.6091 104.445 35.3011C103.982 34.9931 103.713 34.5711 103.639 34.0351H102.394C102.454 34.9001 102.822 35.5911 103.497 36.1091C104.173 36.6271 105.055 36.8871 106.144 36.8871ZM114.001 36.7761C114.144 36.7761 114.288 36.7711 114.433 36.7621C114.579 36.7521 114.688 36.7391 114.763 36.7201V35.7071C114.686 35.7146 114.61 35.7213 114.533 35.7271C114.423 35.7371 114.333 35.7421 114.264 35.7421C113.955 35.7421 113.729 35.6641 113.586 35.5091C113.443 35.3541 113.372 35.1131 113.372 34.7841V30.4961H114.769V29.5041H113.372V27.7621H112.168V29.5041H111.096V30.4961H112.168V34.8461C112.168 35.5401 112.308 36.0361 112.59 36.3311C112.871 36.6271 113.342 36.7761 114.001 36.7761ZM119.493 36.8451C120.484 36.8451 121.287 36.5101 121.9 35.8391C122.514 35.1681 122.82 34.2591 122.82 33.1121C122.82 31.9601 122.514 31.0501 121.9 30.3821C121.287 29.7131 120.484 29.3791 119.493 29.3791C118.497 29.3791 117.692 29.7131 117.078 30.3811C116.465 31.0501 116.158 31.9601 116.158 33.1111C116.158 34.2591 116.465 35.1681 117.078 35.8391C117.692 36.5091 118.497 36.8451 119.493 36.8451ZM119.493 35.7831C118.856 35.7831 118.346 35.5511 117.96 35.0861C117.575 34.6211 117.383 33.9631 117.383 33.1121C117.383 32.2611 117.575 31.6021 117.96 31.1381C118.346 30.6731 118.856 30.4401 119.493 30.4401C120.129 30.4401 120.639 30.6731 121.022 31.1381C121.404 31.6031 121.596 32.2611 121.596 33.1121C121.596 33.9631 121.404 34.6211 121.022 35.0861C120.639 35.5511 120.129 35.7831 119.492 35.7831H119.493ZM125.911 36.7201V32.2241C125.911 31.7141 126.052 31.3051 126.333 30.9961C126.615 30.6861 126.988 30.5311 127.454 30.5311C127.602 30.5311 127.734 30.5381 127.852 30.5511C127.969 30.5651 128.052 30.5811 128.097 30.6001V29.4271C128.032 29.4151 127.966 29.4051 127.9 29.3971C127.805 29.3847 127.709 29.3787 127.613 29.3791C126.709 29.3791 126.128 29.8141 125.87 30.6831H125.842V29.5031H124.708V36.7201H125.911ZM132.365 36.8451C133.149 36.8451 133.819 36.6371 134.375 36.2201C134.93 35.8041 135.259 35.2811 135.36 34.6521H134.177C134.076 34.9901 133.867 35.2651 133.551 35.4781C133.235 35.6911 132.849 35.7981 132.392 35.7981C131.747 35.7981 131.235 35.5881 130.856 35.1691C130.478 34.7511 130.289 34.1971 130.289 33.5071V33.4381H135.45V32.9801C135.45 31.8881 135.17 31.0151 134.61 30.3601C134.05 29.7061 133.282 29.3791 132.31 29.3791C131.318 29.3791 130.527 29.7261 129.936 30.4191C129.346 31.1141 129.051 32.0201 129.051 33.1391C129.051 34.2731 129.346 35.1741 129.936 35.8421C130.526 36.5111 131.336 36.8451 132.365 36.8451ZM134.205 32.4951H130.296C130.333 31.8931 130.534 31.3981 130.898 31.0091C131.262 30.6211 131.726 30.4271 132.288 30.4271C132.856 30.4271 133.314 30.6201 133.662 31.0061C134.01 31.3921 134.191 31.8881 134.205 32.4941V32.4951Z" fill="white"/>
<path opacity="0.703" fill-rule="evenodd" clip-rule="evenodd" d="M31.906 47.605C43.262 47.605 52.467 38.38 52.467 27C52.467 15.62 43.262 6.39502 31.906 6.39502C20.55 6.39502 11.344 15.62 11.344 27C11.344 38.38 20.55 47.605 31.906 47.605V47.605Z" stroke="white"/>
<path fill-rule="evenodd" clip-rule="evenodd" d="M40.414 30.293C40.084 31.397 39.561 32.5 38.849 33.603C37.754 35.333 36.664 36.197 35.579 36.197C35.163 36.197 34.569 36.056 33.797 35.774C33.067 35.491 32.427 35.35 31.876 35.35C31.358 35.35 30.756 35.496 30.069 35.787C29.382 36.087 28.822 36.237 28.389 36.237C27.099 36.237 25.823 35.094 24.559 32.808C23.312 30.505 22.689 28.286 22.689 26.15C22.689 24.138 23.168 22.488 24.126 21.2C25.076 19.929 26.281 19.294 27.74 19.294C28.351 19.294 29.102 19.426 29.992 19.691C30.875 19.955 31.46 20.088 31.748 20.088C32.13 20.088 32.737 19.938 33.568 19.638C34.433 19.338 35.168 19.188 35.769 19.188C36.7413 19.1757 37.6917 19.4773 38.479 20.048C38.921 20.366 39.362 20.807 39.803 21.372C39.133 21.963 38.649 22.484 38.353 22.934C37.8074 23.7431 37.5188 24.6981 37.525 25.674C37.525 26.768 37.818 27.752 38.403 28.626C38.989 29.499 39.659 30.056 40.413 30.293H40.414ZM35.629 14.766C35.629 15.305 35.506 15.905 35.26 16.566C34.9925 17.2483 34.5902 17.8697 34.077 18.393C33.619 18.87 33.161 19.188 32.703 19.346C32.389 19.444 31.948 19.519 31.379 19.571C31.405 18.257 31.736 17.123 32.372 16.17C33 15.225 34.06 14.572 35.553 14.21C35.562 14.237 35.573 14.286 35.585 14.356C35.598 14.426 35.608 14.476 35.617 14.502C35.617 14.537 35.619 14.582 35.623 14.634C35.627 14.687 35.629 14.731 35.629 14.766Z" fill="white"/>
</svg>
