<svg width="173" height="54" viewBox="0 0 173 54" fill="none" xmlns="http://www.w3.org/2000/svg">
<path d="M146 0H27C12.0883 0 0 12.0883 0 27C0 41.9117 12.0883 54 27 54H146C160.912 54 173 41.9117 173 27C173 12.0883 160.912 0 146 0Z" fill="#212121"/>
<path d="M61.11 21.2399L61.567 19.9329H63.377C63.5067 20.3029 63.6363 20.6729 63.766 21.0429L63.835 21.2399H64.431L62.753 16.6739H62.192L60.513 21.2399H61.109H61.11ZM63.21 19.4499H61.734L61.807 19.2429L61.985 18.7339L62.196 18.1269C62.279 17.888 62.3626 17.6493 62.447 17.4109H62.497L63.21 19.4489V19.4499ZM65.793 21.2399V19.2209C65.793 18.9209 65.874 18.6869 66.036 18.5159C66.198 18.3449 66.415 18.2589 66.686 18.2589C66.958 18.2589 67.159 18.3329 67.29 18.4809C67.422 18.6289 67.487 18.8559 67.487 19.1639V21.2399H68.03V19.0309C68.03 18.6259 67.928 18.3149 67.723 18.0969C67.517 17.8779 67.223 17.7689 66.841 17.7689C66.58 17.7689 66.366 17.8219 66.199 17.9269C66.0316 18.0327 65.8993 18.1859 65.819 18.3669H65.769V17.8289H65.251V21.2399H65.793ZM70.37 21.2999C70.606 21.2999 70.82 21.2469 71.01 21.1399C71.202 21.0339 71.351 20.8859 71.459 20.6959H71.509V21.2399H72.026V16.4749H71.484V18.3669H71.436C71.341 18.1808 71.1922 18.0275 71.009 17.9269C70.8134 17.8196 70.5931 17.7652 70.37 17.7689C69.94 17.7689 69.593 17.9289 69.332 18.2499C69.072 18.5699 68.942 18.9989 68.942 19.5349C68.942 20.0699 69.071 20.4989 69.329 20.8189C69.588 21.1389 69.935 21.2999 70.37 21.2999ZM70.496 20.8099C70.186 20.8099 69.942 20.6969 69.766 20.4709C69.591 20.2449 69.503 19.9329 69.503 19.5349C69.503 19.1379 69.591 18.8259 69.768 18.5999C69.944 18.3729 70.188 18.2599 70.496 18.2599C70.803 18.2599 71.046 18.3739 71.226 18.6039C71.406 18.8339 71.496 19.1439 71.496 19.5339C71.496 19.9289 71.407 20.2399 71.228 20.4679C71.1422 20.5793 71.0309 20.6684 70.9036 20.7279C70.7762 20.7874 70.6365 20.8155 70.496 20.8099ZM73.714 21.2399V19.1259C73.714 18.8859 73.798 18.6879 73.966 18.5319C74.1405 18.3732 74.3702 18.2888 74.606 18.2969C74.7223 18.2982 74.8384 18.3089 74.953 18.3289V17.7849C74.8631 17.7737 74.7726 17.7684 74.682 17.7689C74.4703 17.7656 74.2618 17.8202 74.079 17.9269C73.9176 18.0144 73.7959 18.1604 73.739 18.3349H73.689V17.8289H73.171V21.2399H73.714ZM77.025 21.2999C77.509 21.2999 77.891 21.1419 78.172 20.8269C78.452 20.5119 78.593 20.0809 78.593 19.5349C78.593 18.9859 78.453 18.5549 78.172 18.2399C77.892 17.9259 77.509 17.7689 77.025 17.7689C76.542 17.7689 76.159 17.9259 75.879 18.2399C75.598 18.5549 75.457 18.9859 75.457 19.5349C75.457 20.0809 75.597 20.5119 75.879 20.8269C76.159 21.1419 76.542 21.2999 77.025 21.2999ZM77.025 20.8099C76.704 20.8099 76.455 20.6979 76.281 20.4739C76.106 20.2509 76.019 19.9369 76.019 19.5339C76.019 19.1299 76.106 18.8159 76.281 18.5939C76.455 18.3709 76.704 18.2589 77.025 18.2589C77.347 18.2589 77.595 18.3709 77.77 18.5929C77.944 18.8159 78.032 19.1299 78.032 19.5349C78.032 19.9369 77.944 20.2509 77.77 20.4749C77.595 20.6979 77.347 20.8099 77.025 20.8099ZM79.823 17.1709C79.873 17.1718 79.9226 17.1623 79.9687 17.143C80.0149 17.1237 80.0565 17.0951 80.091 17.0589C80.1265 17.024 80.1546 16.9823 80.1735 16.9362C80.1924 16.8901 80.2017 16.8407 80.201 16.7909C80.2019 16.741 80.1927 16.6913 80.1738 16.6451C80.1548 16.5988 80.1267 16.5569 80.091 16.5219C80.0562 16.4863 80.0145 16.4581 79.9684 16.4392C79.9223 16.4203 79.8728 16.411 79.823 16.4119C79.7732 16.411 79.7237 16.4203 79.6776 16.4392C79.6315 16.4581 79.5898 16.4863 79.555 16.5219C79.5192 16.557 79.491 16.5991 79.472 16.6455C79.4531 16.692 79.4439 16.7418 79.445 16.7919C79.445 16.8949 79.481 16.9839 79.555 17.0589C79.5895 17.0951 79.6312 17.1237 79.6773 17.143C79.7234 17.1623 79.773 17.1718 79.823 17.1709ZM80.091 21.2399V17.8299H79.548V21.2399H80.091ZM82.475 21.2999C82.711 21.2999 82.925 21.2469 83.115 21.1399C83.307 21.0339 83.456 20.8859 83.564 20.6959H83.614V21.2399H84.131V16.4749H83.589V18.3669H83.542C83.4467 18.1807 83.2976 18.0273 83.114 17.9269C82.9183 17.8196 82.6981 17.7652 82.475 17.7689C82.045 17.7689 81.698 17.9289 81.437 18.2499C81.177 18.5699 81.047 18.9989 81.047 19.5349C81.047 20.0699 81.176 20.4989 81.434 20.8189C81.693 21.1389 82.04 21.2999 82.475 21.2999ZM82.601 20.8099C82.291 20.8099 82.047 20.6969 81.871 20.4709C81.696 20.2449 81.608 19.9329 81.608 19.5349C81.608 19.1379 81.696 18.8259 81.873 18.5999C82.049 18.3729 82.293 18.2599 82.601 18.2599C82.909 18.2599 83.151 18.3739 83.331 18.6039C83.511 18.8339 83.601 19.1439 83.601 19.5339C83.601 19.9289 83.512 20.2399 83.333 20.4679C83.2472 20.5793 83.1359 20.6684 83.0086 20.7279C82.8812 20.7874 82.7415 20.8155 82.601 20.8099ZM87.493 21.2399L87.951 19.9329H89.761C89.8903 20.3029 90.0197 20.6729 90.149 21.0429L90.219 21.2399H90.815L89.137 16.6739H88.575L86.897 21.2399H87.493ZM89.594 19.4499H88.118L88.19 19.2429L88.369 18.7339L88.579 18.1269C88.65 17.9239 88.709 17.7539 88.759 17.6169L88.831 17.4109H88.881L89.594 19.4489V19.4499ZM92.177 22.3799V20.7269H92.227C92.32 20.9069 92.46 21.0469 92.647 21.1479C92.834 21.2489 93.049 21.2999 93.291 21.2999C93.724 21.2999 94.071 21.1399 94.331 20.8179C94.59 20.4959 94.72 20.0679 94.72 19.5349C94.72 18.9989 94.59 18.5709 94.33 18.2499C94.07 17.9299 93.724 17.7689 93.29 17.7689C93.06 17.7689 92.847 17.8249 92.655 17.9369C92.4645 18.0465 92.3079 18.2064 92.202 18.3989H92.152V17.8289H91.635V22.3789H92.177V22.3799ZM93.161 20.8099C93.021 20.8145 92.8818 20.7856 92.7552 20.7256C92.6286 20.6656 92.5181 20.5762 92.433 20.4649C92.252 20.2349 92.161 19.9249 92.161 19.5349C92.161 19.1419 92.251 18.8319 92.433 18.6029C92.5187 18.4916 92.6298 18.4024 92.7569 18.3425C92.884 18.2827 93.0236 18.2541 93.164 18.2589C93.476 18.2589 93.719 18.3719 93.894 18.5979C94.07 18.8239 94.158 19.1359 94.158 19.5349C94.158 19.9329 94.07 20.2449 93.895 20.4709C93.719 20.6969 93.475 20.8099 93.161 20.8099ZM96.205 22.3799V20.7269H96.255C96.348 20.9069 96.488 21.0469 96.675 21.1479C96.862 21.2489 97.077 21.2999 97.319 21.2999C97.752 21.2999 98.099 21.1399 98.358 20.8179C98.618 20.4959 98.748 20.0679 98.748 19.5349C98.748 18.9989 98.618 18.5709 98.358 18.2499C98.098 17.9299 97.752 17.7689 97.318 17.7689C97.088 17.7689 96.875 17.8249 96.683 17.9369C96.4925 18.0465 96.3359 18.2064 96.23 18.3989H96.18V17.8289H95.662V22.3789H96.205V22.3799ZM97.189 20.8099C97.0488 20.8147 96.9095 20.7859 96.7826 20.7259C96.6558 20.6658 96.5452 20.5764 96.46 20.4649C96.28 20.2349 96.19 19.9249 96.19 19.5349C96.19 19.1419 96.28 18.8319 96.46 18.6029C96.5458 18.4915 96.657 18.4021 96.7843 18.3423C96.9117 18.2825 97.0514 18.2539 97.192 18.2589C97.504 18.2589 97.747 18.3719 97.922 18.5979C98.098 18.8239 98.186 19.1359 98.186 19.5349C98.186 19.9329 98.098 20.2449 97.923 20.4709C97.747 20.6969 97.503 20.8099 97.189 20.8099ZM103.002 21.2999C103.486 21.2999 103.868 21.1419 104.149 20.8269C104.429 20.5119 104.569 20.0809 104.569 19.5349C104.569 18.9859 104.429 18.5549 104.149 18.2399C103.868 17.9259 103.486 17.7689 103.002 17.7689C102.518 17.7689 102.136 17.9259 101.855 18.2399C101.575 18.5549 101.435 18.9859 101.435 19.5349C101.435 20.0809 101.575 20.5119 101.855 20.8269C102.136 21.1419 102.518 21.2999 103.002 21.2999ZM103.002 20.8099C102.68 20.8099 102.432 20.6979 102.257 20.4739C102.083 20.2509 101.996 19.9369 101.996 19.5339C101.996 19.1299 102.083 18.8159 102.257 18.5939C102.432 18.3709 102.68 18.2589 103.002 18.2589C103.324 18.2589 103.572 18.3709 103.746 18.5929C103.921 18.8159 104.008 19.1299 104.008 19.5349C104.008 19.9369 103.921 20.2509 103.746 20.4749C103.572 20.6979 103.324 20.8099 103.002 20.8099ZM106.055 21.2399V19.2209C106.055 18.9209 106.136 18.6869 106.298 18.5159C106.46 18.3449 106.676 18.2589 106.948 18.2589C107.219 18.2589 107.42 18.3329 107.552 18.4809C107.683 18.6289 107.749 18.8559 107.749 19.1639V21.2399H108.292V19.0309C108.292 18.6259 108.189 18.3149 107.984 18.0969C107.779 17.8779 107.485 17.7689 107.102 17.7689C106.842 17.7689 106.628 17.8219 106.46 17.9269C106.293 18.0327 106.16 18.1859 106.08 18.3669H106.03V17.8289H105.512V21.2399H106.055ZM64.993 37.2319C66.208 37.2319 67.156 36.8849 67.835 36.1909C68.515 35.4969 68.854 34.5339 68.854 33.3019V32.4349H65.15V33.4349H67.718V33.5999C67.718 34.3629 67.466 34.9839 66.961 35.4629C66.456 35.9419 65.801 36.1809 64.993 36.1809C64.067 36.1809 63.336 35.8479 62.797 35.1809C62.259 34.5149 61.99 33.6079 61.99 32.4609C61.99 31.3299 62.256 30.4449 62.788 29.8059C63.32 29.1659 64.055 28.8469 64.993 28.8469C65.633 28.8469 66.18 29.0159 66.636 29.3529C67.093 29.6909 67.416 30.1679 67.605 30.7829H68.797C68.629 29.8759 68.199 29.1519 67.507 28.6099C66.815 28.0679 65.977 27.7969 64.993 27.7969C63.718 27.7969 62.705 28.2189 61.952 29.0619C61.199 29.9059 60.822 31.0409 60.822 32.4669C60.822 33.9179 61.2 35.0749 61.955 35.9369C62.71 36.8009 63.723 37.2319 64.993 37.2319ZM74.777 37.2319C76.068 37.2319 77.091 36.8079 77.843 35.9599C78.596 35.1119 78.973 33.9639 78.973 32.5169C78.973 31.0669 78.596 29.9169 77.843 29.0689C77.091 28.2209 76.068 27.7969 74.777 27.7969C73.486 27.7969 72.464 28.2209 71.711 29.0689C70.958 29.9169 70.581 31.0659 70.581 32.5169C70.581 33.9639 70.958 35.1119 71.711 35.9599C72.464 36.8079 73.486 37.2319 74.777 37.2319ZM74.777 36.1819C73.847 36.1819 73.11 35.8519 72.566 35.1919C72.021 34.5309 71.749 33.6399 71.749 32.5169C71.749 31.3909 72.021 30.4969 72.566 29.8369C73.11 29.1769 73.848 28.8469 74.777 28.8469C75.707 28.8469 76.444 29.1769 76.989 29.8369C77.533 30.4969 77.806 31.3909 77.806 32.5169C77.806 33.6399 77.533 34.5309 76.989 35.1909C76.444 35.8509 75.707 36.1809 74.777 36.1809V36.1819ZM84.858 37.2319C86.149 37.2319 87.171 36.8079 87.924 35.9599C88.677 35.1119 89.054 33.9639 89.054 32.5169C89.054 31.0669 88.677 29.9169 87.924 29.0689C87.171 28.2209 86.149 27.7969 84.858 27.7969C83.567 27.7969 82.545 28.2209 81.792 29.0689C81.039 29.9169 80.662 31.0659 80.662 32.5169C80.662 33.9639 81.039 35.1119 81.792 35.9599C82.545 36.8079 83.567 37.2319 84.858 37.2319ZM84.858 36.1819C83.928 36.1819 83.191 35.8519 82.647 35.1919C82.102 34.5309 81.83 33.6399 81.83 32.5169C81.83 31.3909 82.102 30.4969 82.647 29.8369C83.191 29.1769 83.929 28.8469 84.858 28.8469C85.788 28.8469 86.525 29.1769 87.069 29.8369C87.614 30.4969 87.886 31.3909 87.886 32.5169C87.886 33.6399 87.614 34.5309 87.069 35.1909C86.525 35.8509 85.788 36.1809 84.859 36.1809L84.858 36.1819ZM94.914 37.2319C96.129 37.2319 97.077 36.8849 97.756 36.1909C98.436 35.4969 98.775 34.5339 98.775 33.3019V32.4349H95.072V33.4349H97.639V33.5999C97.639 34.3629 97.387 34.9839 96.882 35.4629C96.378 35.9419 95.722 36.1809 94.914 36.1809C93.988 36.1809 93.257 35.8479 92.718 35.1809C92.18 34.5149 91.911 33.6079 91.911 32.4609C91.911 31.3299 92.177 30.4449 92.709 29.8059C93.241 29.1659 93.976 28.8469 94.914 28.8469C95.554 28.8469 96.101 29.0159 96.557 29.3529C97.014 29.6909 97.337 30.1679 97.526 30.7829H98.718C98.55 29.8759 98.12 29.1519 97.428 28.6099C96.736 28.0679 95.898 27.7969 94.914 27.7969C93.639 27.7969 92.626 28.2189 91.873 29.0619C91.12 29.9059 90.743 31.0409 90.743 32.4669C90.743 33.9179 91.121 35.0749 91.876 35.9369C92.631 36.8009 93.644 37.2319 94.914 37.2319ZM106.383 37.0799V36.0549H101.992V27.9489H100.856V37.0799H106.383ZM113.903 37.0799V36.0549H109.397V32.9159H113.669V31.9039H109.397V28.9739H113.902V27.9489H108.262V37.0799H113.902H113.903ZM120.443 37.0799V33.8209H122.543C123.397 33.8209 124.099 33.5469 124.648 32.9979C125.196 32.4499 125.471 31.7429 125.471 30.8779C125.471 30.0139 125.199 29.3089 124.654 28.7649C124.109 28.2209 123.41 27.9489 122.556 27.9489H119.306V37.0799H120.443ZM122.26 32.8089H120.443V28.9599H122.26C122.912 28.9599 123.415 29.1289 123.77 29.4659C124.126 29.8039 124.304 30.2739 124.304 30.8769C124.304 31.4849 124.126 31.9579 123.771 32.2979C123.415 32.6379 122.911 32.8079 122.26 32.8079V32.8089ZM132.927 37.0799V36.0549H128.537V27.9489H127.4V37.0799H132.927ZM135.273 37.0799L136.188 34.4659H139.809C140.068 35.2053 140.326 35.9446 140.585 36.6839L140.725 37.0799H141.917L138.56 27.9489H137.437L134.081 37.0799H135.273ZM139.475 33.4979H136.522L136.671 33.0779C136.938 32.3176 137.204 31.5569 137.469 30.7959C137.612 30.3829 137.733 30.0359 137.832 29.7559L137.98 29.3339H138.018L139.475 33.4979ZM146.092 37.0799V33.1499L149.322 27.9489H148.029L145.543 32.0489H145.505L143.02 27.9489H141.726L144.956 33.1499V37.0799H146.092Z" fill="white"/>
<path opacity="0.701" d="M31.906 47.605C43.2615 47.605 52.467 38.3798 52.467 27C52.467 15.6202 43.2615 6.39502 31.906 6.39502C20.5505 6.39502 11.345 15.6202 11.345 27C11.345 38.3798 20.5505 47.605 31.906 47.605Z" stroke="white"/>
<path d="M38.646 23.89L25.615 16.78C25.245 16.579 24.905 16.532 24.628 16.617L35.302 27.21L38.646 23.89Z" fill="url(#paint0_linear)"/>
<path fill-rule="evenodd" clip-rule="evenodd" d="M38.663 30.5439L43.111 28.1169C44.013 27.6229 44.013 26.8189 43.111 26.3269L38.646 23.8899L35.302 27.2089L38.662 30.5439" fill="url(#paint1_linear)"/>
<path d="M24.628 16.617C24.231 16.74 23.975 17.14 23.975 17.741L23.977 36.701C23.977 37.298 24.226 37.69 24.61 37.821L35.302 27.211L24.628 16.616" fill="url(#paint2_linear)"/>
<path d="M24.61 37.82C24.888 37.914 25.236 37.87 25.615 37.664L38.661 30.544L35.302 27.21L24.61 37.82Z" fill="url(#paint3_linear)"/>
<defs>
<linearGradient id="paint0_linear" x1="27.3216" y1="16.6841" x2="31.983" y2="25.7675" gradientUnits="userSpaceOnUse">
<stop stop-color="#19A3B4"/>
<stop offset="0.34817" stop-color="#5BC3AF"/>
<stop offset="0.92234" stop-color="#C8F7A6"/>
<stop offset="1" stop-color="#D7FEA5"/>
</linearGradient>
<linearGradient id="paint1_linear" x1="34.0548" y1="20.4939" x2="39.3118" y2="31.0119" gradientUnits="userSpaceOnUse">
<stop stop-color="#FC227C"/>
<stop offset="1" stop-color="#FEEB7B"/>
</linearGradient>
<linearGradient id="paint2_linear" x1="28.9322" y1="13.4747" x2="31.1832" y2="34.018" gradientUnits="userSpaceOnUse">
<stop stop-color="#0E4DA0"/>
<stop offset="1" stop-color="#6BFED4"/>
</linearGradient>
<linearGradient id="paint3_linear" x1="43.1918" y1="30.4827" x2="27.7328" y2="40.6812" gradientUnits="userSpaceOnUse">
<stop stop-color="#FC472E"/>
<stop offset="0.00332" stop-color="#FC472F"/>
<stop offset="1" stop-color="#893CD8"/>
</linearGradient>
</defs>
</svg>
